<?xml version="1.0" encoding="utf-8" ?>
<svg baseProfile="full" height="1024px" version="1.1" width="1024px" xmlns="http://www.w3.org/2000/svg" xmlns:ev="http://www.w3.org/2001/xml-events" xmlns:xlink="http://www.w3.org/1999/xlink"><defs /><polygon fill="black" points="835.0,959.0" /><polygon fill="black" points="826.0,956.0" /><polygon fill="black" points="886.0,936.0" /><polygon fill="black" points="780.0,896.0" /><polygon fill="black" points="291.0,844.0" /><polygon fill="black" points="732.0,783.0" /><polygon fill="black" points="807.0,758.0" /><polygon fill="black" points="707.0,722.0" /><polygon fill="black" points="704.0,715.0" /><polygon fill="black" points="363.0,713.0" /><polygon fill="black" points="775.0,672.0" /><polygon fill="black" points="392.0,658.0" /><polygon fill="black" points="395.0,642.0" /><polygon fill="black" points="400.0,619.0" /><polygon fill="black" points="432.0,500.0" /><polygon fill="black" points="658.0,483.0" /><polygon fill="black" points="314.0,460.0" /><polygon fill="black" points="396.0,431.0" /><polygon fill="black" points="262.0,415.0" /><polygon fill="black" points="620.0,399.0" /><polygon fill="black" points="237.0,383.0" /><polygon fill="black" points="237.0,381.0" /><polygon fill="black" points="237.0,379.0" /><polygon fill="black" points="237.0,377.0" /><polygon fill="black" points="244.0,330.0" /><polygon fill="black" points="376.0,259.0" /><polygon fill="black" points="298.0,248.0" /><polygon fill="black" points="572.0,244.0" /><polygon fill="black" points="416.0,241.0 417.0,241.0" /><polygon fill="black" points="412.0,221.0" /><polygon fill="black" points="411.0,193.0" /><polygon fill="black" points="420.0,168.0" /><polygon fill="black" points="436.0,152.0" /><polygon fill="black" points="440.0,145.0" /><polygon fill="black" points="340.0,129.0" /><polygon fill="black" points="347.0,108.0" /><polygon fill="black" points="374.0,40.0" /><polygon fill="black" points="383.0,35.0 382.0,36.0 383.0,37.0 382.0,38.0 381.0,38.0 380.0,39.0 379.0,39.0 377.0,41.0 376.0,40.0 376.0,41.0 375.0,42.0 375.0,43.0 371.0,47.0 371.0,48.0 369.0,50.0 369.0,51.0 368.0,52.0 368.0,54.0 367.0,55.0 367.0,56.0 366.0,57.0 366.0,59.0 365.0,60.0 365.0,62.0 364.0,63.0 364.0,65.0 363.0,66.0 363.0,68.0 362.0,69.0 362.0,71.0 361.0,72.0 361.0,74.0 360.0,75.0 360.0,77.0 359.0,78.0 359.0,80.0 358.0,81.0 358.0,83.0 357.0,84.0 357.0,86.0 356.0,87.0 356.0,89.0 355.0,90.0 355.0,92.0 354.0,93.0 354.0,95.0 353.0,96.0 353.0,97.0 352.0,98.0 352.0,101.0 351.0,102.0 351.0,103.0 350.0,104.0 350.0,106.0 349.0,107.0 349.0,109.0 348.0,110.0 348.0,112.0 347.0,113.0 347.0,115.0 346.0,116.0 346.0,118.0 345.0,119.0 345.0,121.0 344.0,122.0 344.0,124.0 343.0,125.0 343.0,127.0 342.0,128.0 342.0,130.0 341.0,131.0 341.0,133.0 340.0,134.0 340.0,136.0 339.0,137.0 339.0,139.0 338.0,140.0 337.0,139.0 338.0,140.0 338.0,142.0 337.0,143.0 337.0,144.0 336.0,145.0 336.0,148.0 335.0,149.0 335.0,151.0 334.0,152.0 334.0,154.0 333.0,155.0 333.0,157.0 332.0,158.0 332.0,160.0 331.0,161.0 331.0,163.0 330.0,164.0 330.0,166.0 329.0,167.0 329.0,169.0 328.0,170.0 328.0,172.0 327.0,173.0 327.0,175.0 326.0,176.0 326.0,178.0 325.0,179.0 325.0,181.0 324.0,182.0 324.0,184.0 323.0,185.0 323.0,187.0 322.0,188.0 322.0,190.0 321.0,191.0 321.0,193.0 320.0,194.0 320.0,196.0 319.0,197.0 319.0,199.0 318.0,200.0 318.0,202.0 317.0,203.0 317.0,205.0 316.0,206.0 316.0,208.0 315.0,209.0 315.0,211.0 314.0,212.0 314.0,214.0 313.0,215.0 313.0,217.0 312.0,218.0 312.0,220.0 311.0,221.0 311.0,223.0 310.0,224.0 310.0,226.0 309.0,227.0 309.0,229.0 308.0,230.0 308.0,232.0 307.0,233.0 307.0,235.0 306.0,236.0 306.0,238.0 305.0,239.0 305.0,241.0 304.0,242.0 304.0,244.0 303.0,245.0 303.0,247.0 302.0,248.0 302.0,250.0 301.0,251.0 301.0,253.0 300.0,254.0 300.0,256.0 299.0,257.0 299.0,260.0 298.0,261.0 298.0,262.0 297.0,263.0 297.0,265.0 296.0,266.0 296.0,269.0 295.0,270.0 295.0,272.0 294.0,273.0 294.0,275.0 293.0,276.0 293.0,278.0 292.0,279.0 292.0,280.0 291.0,281.0 291.0,284.0 290.0,285.0 290.0,287.0 289.0,288.0 289.0,289.0 288.0,290.0 288.0,293.0 287.0,294.0 287.0,295.0 286.0,296.0 286.0,299.0 285.0,300.0 285.0,301.0 284.0,302.0 276.0,302.0 275.0,303.0 270.0,303.0 269.0,304.0 267.0,304.0 266.0,305.0 265.0,305.0 264.0,306.0 263.0,306.0 261.0,308.0 260.0,308.0 254.0,314.0 254.0,315.0 252.0,317.0 252.0,318.0 251.0,319.0 251.0,320.0 249.0,322.0 249.0,324.0 248.0,325.0 248.0,326.0 247.0,327.0 247.0,329.0 246.0,330.0 246.0,333.0 245.0,334.0 245.0,337.0 244.0,338.0 244.0,343.0 243.0,344.0 243.0,353.0 244.0,354.0 243.0,355.0 243.0,359.0 242.0,360.0 242.0,362.0 241.0,363.0 241.0,365.0 240.0,366.0 240.0,370.0 239.0,371.0 239.0,385.0 240.0,386.0 240.0,388.0 241.0,389.0 241.0,391.0 242.0,392.0 242.0,393.0 243.0,394.0 243.0,395.0 244.0,396.0 244.0,397.0 247.0,400.0 247.0,401.0 253.0,407.0 254.0,407.0 256.0,409.0 257.0,409.0 259.0,411.0 260.0,411.0 261.0,412.0 262.0,412.0 263.0,413.0 264.0,413.0 265.0,414.0 266.0,414.0 267.0,415.0 267.0,416.0 268.0,417.0 268.0,418.0 267.0,419.0 268.0,418.0 270.0,420.0 270.0,421.0 271.0,422.0 271.0,423.0 273.0,425.0 273.0,426.0 275.0,428.0 275.0,429.0 277.0,431.0 277.0,432.0 279.0,434.0 279.0,435.0 281.0,437.0 281.0,438.0 285.0,442.0 285.0,443.0 293.0,451.0 294.0,451.0 297.0,454.0 298.0,454.0 300.0,456.0 301.0,456.0 302.0,457.0 304.0,457.0 305.0,458.0 314.0,458.0 315.0,457.0 317.0,457.0 318.0,456.0 319.0,456.0 320.0,455.0 321.0,455.0 323.0,453.0 324.0,453.0 325.0,454.0 324.0,453.0 328.0,449.0 329.0,449.0 337.0,441.0 337.0,440.0 340.0,437.0 341.0,437.0 343.0,435.0 343.0,434.0 360.0,417.0 360.0,416.0 361.0,415.0 362.0,415.0 364.0,413.0 364.0,412.0 375.0,401.0 376.0,401.0 381.0,406.0 381.0,407.0 389.0,415.0 389.0,416.0 396.0,423.0 396.0,424.0 404.0,432.0 404.0,433.0 410.0,439.0 410.0,440.0 416.0,446.0 416.0,447.0 417.0,448.0 416.0,449.0 417.0,448.0 421.0,452.0 421.0,453.0 422.0,454.0 421.0,455.0 422.0,454.0 426.0,458.0 426.0,459.0 428.0,461.0 428.0,462.0 429.0,463.0 429.0,464.0 430.0,465.0 430.0,467.0 431.0,468.0 431.0,470.0 430.0,471.0 430.0,472.0 431.0,473.0 430.0,474.0 431.0,475.0 431.0,487.0 432.0,488.0 432.0,493.0 433.0,494.0 433.0,497.0 434.0,498.0 434.0,501.0 435.0,502.0 435.0,505.0 434.0,506.0 433.0,505.0 434.0,506.0 434.0,507.0 433.0,508.0 433.0,509.0 431.0,511.0 431.0,512.0 429.0,514.0 429.0,515.0 427.0,517.0 427.0,518.0 426.0,519.0 426.0,520.0 425.0,521.0 425.0,523.0 424.0,524.0 424.0,526.0 423.0,527.0 423.0,529.0 422.0,530.0 422.0,534.0 421.0,535.0 421.0,538.0 420.0,539.0 420.0,542.0 419.0,543.0 419.0,546.0 418.0,547.0 418.0,551.0 417.0,552.0 417.0,555.0 416.0,556.0 416.0,560.0 415.0,561.0 415.0,563.0 414.0,564.0 414.0,568.0 413.0,569.0 413.0,572.0 412.0,573.0 412.0,577.0 411.0,578.0 411.0,581.0 410.0,582.0 410.0,585.0 409.0,586.0 409.0,590.0 408.0,591.0 408.0,595.0 407.0,596.0 407.0,599.0 406.0,600.0 406.0,604.0 405.0,605.0 405.0,609.0 404.0,610.0 404.0,613.0 403.0,614.0 403.0,617.0 402.0,618.0 402.0,621.0 401.0,622.0 401.0,625.0 400.0,626.0 400.0,630.0 399.0,631.0 399.0,634.0 398.0,635.0 398.0,639.0 397.0,640.0 397.0,644.0 396.0,645.0 396.0,649.0 395.0,650.0 395.0,654.0 394.0,655.0 394.0,659.0 393.0,660.0 393.0,664.0 392.0,665.0 392.0,668.0 391.0,669.0 391.0,672.0 390.0,673.0 390.0,675.0 389.0,676.0 389.0,677.0 388.0,678.0 388.0,679.0 387.0,680.0 387.0,681.0 385.0,683.0 385.0,684.0 384.0,685.0 384.0,686.0 382.0,688.0 382.0,689.0 380.0,691.0 380.0,692.0 378.0,694.0 378.0,695.0 375.0,698.0 375.0,699.0 374.0,700.0 374.0,701.0 372.0,703.0 372.0,704.0 371.0,705.0 371.0,706.0 370.0,707.0 370.0,709.0 369.0,710.0 369.0,711.0 368.0,712.0 368.0,713.0 367.0,714.0 367.0,715.0 361.0,721.0 360.0,720.0 361.0,721.0 361.0,722.0 358.0,725.0 358.0,726.0 357.0,727.0 357.0,728.0 356.0,729.0 356.0,730.0 355.0,731.0 355.0,732.0 354.0,733.0 354.0,734.0 353.0,735.0 353.0,736.0 352.0,737.0 352.0,738.0 349.0,741.0 349.0,742.0 344.0,747.0 344.0,748.0 341.0,751.0 341.0,752.0 340.0,753.0 340.0,754.0 338.0,756.0 338.0,757.0 337.0,758.0 337.0,759.0 336.0,760.0 336.0,761.0 335.0,762.0 335.0,763.0 334.0,764.0 334.0,765.0 333.0,766.0 333.0,767.0 332.0,768.0 332.0,769.0 331.0,770.0 331.0,771.0 330.0,772.0 330.0,773.0 329.0,774.0 329.0,775.0 327.0,777.0 326.0,776.0 327.0,777.0 327.0,779.0 326.0,780.0 326.0,781.0 325.0,782.0 325.0,783.0 324.0,784.0 324.0,785.0 323.0,786.0 323.0,787.0 322.0,788.0 322.0,789.0 321.0,790.0 321.0,791.0 320.0,792.0 320.0,793.0 319.0,794.0 319.0,795.0 318.0,796.0 318.0,798.0 317.0,799.0 317.0,800.0 316.0,801.0 316.0,802.0 315.0,803.0 315.0,804.0 314.0,805.0 314.0,806.0 312.0,808.0 312.0,809.0 310.0,811.0 310.0,812.0 308.0,814.0 308.0,815.0 307.0,816.0 307.0,817.0 305.0,819.0 305.0,820.0 303.0,822.0 303.0,823.0 302.0,824.0 302.0,825.0 301.0,826.0 301.0,827.0 299.0,829.0 299.0,830.0 298.0,831.0 298.0,832.0 297.0,833.0 296.0,832.0 297.0,833.0 297.0,834.0 296.0,835.0 296.0,836.0 295.0,837.0 295.0,839.0 294.0,840.0 294.0,842.0 293.0,843.0 293.0,846.0 292.0,847.0 292.0,850.0 290.0,852.0 289.0,851.0 290.0,852.0 286.0,856.0 285.0,856.0 280.0,861.0 280.0,862.0 276.0,866.0 276.0,867.0 275.0,868.0 275.0,869.0 274.0,870.0 274.0,871.0 273.0,872.0 273.0,873.0 272.0,874.0 272.0,878.0 271.0,879.0 272.0,880.0 272.0,886.0 271.0,887.0 271.0,888.0 269.0,890.0 269.0,891.0 267.0,893.0 267.0,894.0 263.0,898.0 263.0,899.0 261.0,901.0 261.0,902.0 259.0,904.0 259.0,905.0 257.0,907.0 257.0,908.0 254.0,911.0 254.0,912.0 253.0,913.0 253.0,914.0 251.0,916.0 251.0,917.0 250.0,918.0 250.0,919.0 248.0,921.0 248.0,922.0 247.0,923.0 247.0,925.0 246.0,926.0 246.0,928.0 245.0,929.0 245.0,935.0 244.0,936.0 244.0,938.0 245.0,939.0 245.0,942.0 246.0,943.0 246.0,944.0 247.0,945.0 247.0,946.0 249.0,948.0 249.0,949.0 250.0,950.0 251.0,950.0 254.0,953.0 255.0,953.0 256.0,954.0 257.0,954.0 258.0,955.0 259.0,955.0 260.0,956.0 261.0,956.0 262.0,957.0 266.0,957.0 267.0,958.0 272.0,958.0 273.0,959.0 284.0,959.0 285.0,958.0 292.0,958.0 293.0,957.0 295.0,957.0 296.0,956.0 298.0,956.0 299.0,955.0 300.0,955.0 301.0,954.0 302.0,954.0 303.0,953.0 304.0,953.0 310.0,947.0 310.0,946.0 311.0,945.0 311.0,944.0 312.0,943.0 312.0,942.0 313.0,941.0 313.0,939.0 314.0,938.0 314.0,921.0 313.0,920.0 313.0,915.0 314.0,914.0 314.0,913.0 315.0,912.0 315.0,911.0 316.0,910.0 316.0,909.0 317.0,908.0 317.0,907.0 318.0,906.0 319.0,906.0 321.0,904.0 322.0,904.0 323.0,903.0 324.0,903.0 328.0,899.0 329.0,899.0 329.0,898.0 332.0,895.0 332.0,894.0 334.0,892.0 334.0,891.0 335.0,890.0 335.0,889.0 336.0,888.0 336.0,887.0 337.0,886.0 337.0,885.0 338.0,884.0 338.0,883.0 339.0,882.0 339.0,881.0 343.0,877.0 343.0,876.0 347.0,872.0 347.0,871.0 350.0,868.0 350.0,867.0 352.0,865.0 352.0,864.0 354.0,862.0 354.0,861.0 356.0,859.0 356.0,858.0 357.0,857.0 357.0,856.0 359.0,854.0 359.0,853.0 361.0,851.0 361.0,850.0 362.0,849.0 362.0,848.0 364.0,846.0 364.0,845.0 366.0,843.0 366.0,842.0 368.0,840.0 368.0,839.0 369.0,838.0 369.0,837.0 372.0,834.0 372.0,833.0 374.0,831.0 374.0,830.0 377.0,827.0 377.0,826.0 381.0,822.0 381.0,821.0 383.0,819.0 383.0,818.0 386.0,815.0 386.0,814.0 387.0,813.0 387.0,812.0 389.0,810.0 389.0,809.0 391.0,807.0 391.0,806.0 393.0,804.0 393.0,803.0 394.0,802.0 394.0,801.0 396.0,799.0 396.0,798.0 398.0,796.0 398.0,795.0 399.0,794.0 399.0,793.0 401.0,791.0 401.0,790.0 402.0,789.0 402.0,788.0 404.0,786.0 404.0,785.0 406.0,783.0 406.0,782.0 407.0,781.0 407.0,780.0 408.0,779.0 408.0,778.0 410.0,776.0 410.0,775.0 412.0,773.0 412.0,772.0 414.0,770.0 414.0,769.0 415.0,768.0 415.0,767.0 416.0,766.0 416.0,765.0 418.0,763.0 418.0,762.0 419.0,761.0 419.0,760.0 421.0,758.0 421.0,757.0 423.0,755.0 423.0,754.0 426.0,751.0 426.0,750.0 435.0,741.0 435.0,740.0 440.0,735.0 440.0,734.0 444.0,730.0 444.0,729.0 446.0,727.0 446.0,726.0 449.0,723.0 449.0,722.0 450.0,721.0 450.0,720.0 452.0,718.0 452.0,717.0 454.0,715.0 454.0,714.0 456.0,712.0 456.0,711.0 458.0,709.0 458.0,708.0 459.0,707.0 459.0,706.0 462.0,703.0 462.0,702.0 464.0,700.0 464.0,699.0 466.0,697.0 466.0,696.0 468.0,694.0 468.0,693.0 471.0,690.0 471.0,689.0 473.0,687.0 473.0,686.0 475.0,684.0 475.0,683.0 478.0,680.0 478.0,679.0 481.0,676.0 481.0,675.0 483.0,673.0 483.0,672.0 486.0,669.0 486.0,668.0 489.0,665.0 489.0,664.0 491.0,662.0 491.0,661.0 494.0,658.0 494.0,657.0 497.0,654.0 497.0,653.0 500.0,650.0 500.0,649.0 504.0,645.0 504.0,644.0 507.0,641.0 507.0,640.0 512.0,635.0 512.0,634.0 517.0,629.0 517.0,628.0 536.0,609.0 537.0,609.0 542.0,604.0 543.0,604.0 545.0,602.0 546.0,602.0 548.0,600.0 549.0,600.0 551.0,598.0 552.0,598.0 554.0,596.0 555.0,596.0 556.0,595.0 557.0,595.0 558.0,594.0 560.0,594.0 561.0,593.0 563.0,593.0 564.0,592.0 567.0,592.0 568.0,591.0 577.0,591.0 578.0,592.0 582.0,592.0 583.0,593.0 586.0,593.0 587.0,594.0 588.0,594.0 589.0,595.0 590.0,595.0 591.0,596.0 592.0,596.0 593.0,597.0 594.0,597.0 595.0,598.0 596.0,598.0 598.0,600.0 599.0,600.0 601.0,602.0 602.0,602.0 605.0,605.0 606.0,605.0 609.0,608.0 610.0,608.0 615.0,613.0 616.0,613.0 621.0,618.0 622.0,618.0 630.0,626.0 631.0,626.0 648.0,643.0 649.0,643.0 667.0,661.0 667.0,662.0 668.0,662.0 672.0,666.0 672.0,667.0 682.0,677.0 682.0,678.0 683.0,678.0 684.0,679.0 684.0,680.0 688.0,684.0 688.0,685.0 691.0,688.0 691.0,689.0 693.0,691.0 693.0,692.0 695.0,694.0 695.0,695.0 696.0,696.0 696.0,697.0 697.0,698.0 697.0,699.0 699.0,701.0 699.0,702.0 700.0,703.0 700.0,704.0 701.0,705.0 701.0,706.0 702.0,707.0 702.0,708.0 704.0,710.0 704.0,711.0 705.0,712.0 705.0,713.0 706.0,714.0 706.0,715.0 707.0,716.0 707.0,717.0 708.0,718.0 708.0,719.0 709.0,720.0 709.0,722.0 710.0,723.0 710.0,724.0 711.0,725.0 711.0,726.0 712.0,727.0 712.0,728.0 713.0,729.0 713.0,730.0 714.0,731.0 714.0,732.0 715.0,733.0 715.0,734.0 716.0,735.0 716.0,736.0 717.0,737.0 717.0,739.0 718.0,740.0 718.0,741.0 719.0,742.0 719.0,743.0 720.0,744.0 720.0,746.0 721.0,747.0 721.0,748.0 722.0,749.0 722.0,750.0 723.0,751.0 723.0,753.0 724.0,754.0 724.0,755.0 725.0,756.0 725.0,757.0 726.0,758.0 726.0,759.0 727.0,760.0 727.0,762.0 728.0,763.0 728.0,764.0 729.0,765.0 729.0,766.0 730.0,767.0 730.0,769.0 731.0,770.0 731.0,771.0 732.0,772.0 732.0,774.0 733.0,775.0 733.0,777.0 732.0,778.0 733.0,777.0 734.0,778.0 734.0,779.0 735.0,780.0 735.0,781.0 736.0,782.0 736.0,784.0 737.0,785.0 737.0,786.0 738.0,787.0 738.0,788.0 739.0,789.0 739.0,791.0 740.0,792.0 740.0,793.0 741.0,794.0 741.0,796.0 742.0,797.0 742.0,798.0 743.0,799.0 743.0,801.0 744.0,802.0 744.0,803.0 745.0,804.0 745.0,806.0 746.0,807.0 746.0,808.0 747.0,809.0 747.0,811.0 748.0,812.0 748.0,813.0 749.0,814.0 749.0,815.0 750.0,816.0 750.0,817.0 751.0,818.0 751.0,819.0 752.0,820.0 752.0,821.0 753.0,822.0 753.0,823.0 755.0,825.0 755.0,826.0 758.0,829.0 758.0,830.0 760.0,832.0 760.0,833.0 761.0,834.0 761.0,835.0 762.0,836.0 762.0,837.0 763.0,838.0 763.0,840.0 762.0,841.0 763.0,840.0 764.0,841.0 764.0,842.0 765.0,843.0 765.0,845.0 764.0,846.0 765.0,845.0 766.0,846.0 766.0,847.0 767.0,848.0 767.0,850.0 768.0,851.0 768.0,852.0 769.0,853.0 769.0,855.0 770.0,856.0 770.0,858.0 771.0,859.0 771.0,861.0 772.0,862.0 772.0,863.0 773.0,864.0 773.0,866.0 774.0,867.0 774.0,869.0 775.0,870.0 775.0,872.0 776.0,873.0 776.0,875.0 777.0,876.0 777.0,878.0 778.0,879.0 778.0,881.0 779.0,882.0 779.0,883.0 780.0,884.0 780.0,887.0 781.0,888.0 781.0,891.0 782.0,892.0 782.0,903.0 781.0,904.0 781.0,910.0 780.0,911.0 780.0,917.0 781.0,918.0 781.0,923.0 782.0,924.0 782.0,926.0 783.0,927.0 783.0,928.0 784.0,929.0 784.0,930.0 785.0,931.0 785.0,932.0 791.0,938.0 792.0,938.0 793.0,939.0 794.0,939.0 795.0,940.0 796.0,940.0 797.0,941.0 799.0,941.0 800.0,942.0 802.0,942.0 803.0,943.0 806.0,943.0 807.0,944.0 811.0,944.0 812.0,945.0 813.0,945.0 814.0,946.0 815.0,946.0 819.0,950.0 820.0,950.0 822.0,952.0 824.0,952.0 826.0,954.0 827.0,954.0 828.0,955.0 830.0,955.0 831.0,956.0 832.0,956.0 833.0,957.0 837.0,957.0 838.0,958.0 842.0,958.0 843.0,959.0 865.0,959.0 866.0,958.0 870.0,958.0 871.0,957.0 873.0,957.0 874.0,956.0 875.0,956.0 876.0,955.0 877.0,955.0 882.0,950.0 882.0,949.0 883.0,948.0 883.0,946.0 884.0,945.0 884.0,937.0 883.0,936.0 883.0,934.0 882.0,933.0 882.0,932.0 881.0,931.0 881.0,930.0 880.0,929.0 880.0,928.0 872.0,920.0 871.0,920.0 866.0,915.0 865.0,915.0 864.0,914.0 864.0,913.0 862.0,911.0 861.0,911.0 860.0,910.0 860.0,909.0 853.0,902.0 853.0,901.0 850.0,898.0 850.0,897.0 848.0,895.0 848.0,894.0 847.0,893.0 847.0,892.0 846.0,891.0 847.0,890.0 846.0,891.0 845.0,890.0 845.0,889.0 846.0,888.0 845.0,889.0 844.0,888.0 844.0,887.0 842.0,885.0 842.0,884.0 845.0,881.0 845.0,880.0 846.0,879.0 846.0,868.0 845.0,867.0 845.0,866.0 844.0,865.0 844.0,864.0 843.0,863.0 843.0,862.0 841.0,860.0 841.0,859.0 838.0,856.0 838.0,855.0 832.0,849.0 832.0,848.0 831.0,847.0 831.0,845.0 830.0,844.0 830.0,843.0 829.0,842.0 829.0,840.0 828.0,839.0 828.0,837.0 827.0,836.0 827.0,834.0 826.0,833.0 826.0,831.0 825.0,830.0 825.0,828.0 824.0,827.0 824.0,825.0 823.0,824.0 823.0,823.0 822.0,822.0 822.0,819.0 821.0,818.0 821.0,816.0 820.0,815.0 820.0,813.0 819.0,812.0 819.0,809.0 818.0,808.0 818.0,806.0 817.0,805.0 817.0,803.0 816.0,802.0 816.0,799.0 815.0,798.0 815.0,795.0 814.0,794.0 814.0,792.0 813.0,791.0 813.0,788.0 812.0,787.0 812.0,784.0 811.0,783.0 811.0,780.0 810.0,779.0 810.0,776.0 809.0,775.0 809.0,772.0 808.0,771.0 808.0,768.0 807.0,767.0 807.0,765.0 806.0,764.0 806.0,760.0 805.0,759.0 805.0,758.0 804.0,757.0 804.0,754.0 803.0,753.0 803.0,751.0 802.0,750.0 802.0,749.0 801.0,748.0 801.0,746.0 800.0,745.0 800.0,744.0 799.0,743.0 799.0,742.0 798.0,741.0 798.0,740.0 797.0,739.0 797.0,738.0 796.0,737.0 796.0,736.0 795.0,735.0 795.0,734.0 794.0,733.0 794.0,732.0 793.0,731.0 793.0,729.0 792.0,728.0 792.0,727.0 791.0,726.0 791.0,725.0 790.0,724.0 790.0,722.0 789.0,721.0 789.0,719.0 788.0,718.0 788.0,717.0 787.0,716.0 787.0,714.0 786.0,713.0 786.0,711.0 785.0,710.0 785.0,709.0 784.0,708.0 784.0,706.0 783.0,705.0 783.0,703.0 782.0,702.0 782.0,700.0 781.0,699.0 781.0,697.0 780.0,696.0 780.0,694.0 779.0,693.0 779.0,690.0 778.0,689.0 778.0,687.0 777.0,686.0 777.0,683.0 776.0,682.0 776.0,680.0 775.0,679.0 775.0,677.0 774.0,676.0 774.0,674.0 773.0,673.0 773.0,672.0 772.0,671.0 772.0,669.0 771.0,668.0 771.0,667.0 770.0,666.0 770.0,665.0 769.0,664.0 769.0,663.0 768.0,662.0 768.0,661.0 766.0,659.0 766.0,658.0 765.0,657.0 765.0,656.0 764.0,655.0 764.0,654.0 762.0,652.0 762.0,651.0 761.0,650.0 761.0,649.0 759.0,647.0 759.0,646.0 758.0,645.0 758.0,644.0 756.0,642.0 756.0,641.0 755.0,640.0 755.0,639.0 753.0,637.0 753.0,636.0 751.0,634.0 751.0,633.0 749.0,631.0 749.0,630.0 748.0,629.0 748.0,628.0 746.0,626.0 746.0,625.0 744.0,623.0 744.0,622.0 742.0,620.0 742.0,619.0 741.0,618.0 741.0,617.0 739.0,615.0 739.0,614.0 737.0,612.0 737.0,611.0 736.0,610.0 736.0,609.0 734.0,607.0 734.0,606.0 733.0,605.0 733.0,604.0 731.0,602.0 731.0,601.0 729.0,599.0 729.0,598.0 728.0,597.0 728.0,596.0 729.0,595.0 728.0,596.0 726.0,594.0 726.0,593.0 727.0,592.0 726.0,593.0 724.0,591.0 724.0,590.0 722.0,588.0 722.0,587.0 721.0,586.0 721.0,585.0 719.0,583.0 719.0,582.0 717.0,580.0 717.0,579.0 715.0,577.0 715.0,576.0 714.0,575.0 714.0,574.0 712.0,572.0 712.0,571.0 710.0,569.0 710.0,568.0 709.0,567.0 709.0,566.0 707.0,564.0 707.0,563.0 705.0,561.0 705.0,560.0 703.0,558.0 703.0,557.0 702.0,556.0 702.0,555.0 703.0,554.0 702.0,555.0 700.0,553.0 700.0,552.0 698.0,550.0 698.0,549.0 696.0,547.0 696.0,546.0 694.0,544.0 694.0,543.0 693.0,542.0 693.0,541.0 691.0,539.0 691.0,538.0 689.0,536.0 689.0,535.0 687.0,533.0 687.0,532.0 685.0,530.0 685.0,529.0 684.0,528.0 684.0,527.0 681.0,524.0 681.0,523.0 680.0,522.0 680.0,521.0 681.0,520.0 680.0,521.0 678.0,519.0 678.0,518.0 676.0,516.0 676.0,515.0 674.0,513.0 674.0,512.0 673.0,511.0 673.0,510.0 671.0,508.0 671.0,507.0 669.0,505.0 669.0,504.0 667.0,502.0 667.0,501.0 666.0,500.0 666.0,499.0 664.0,497.0 664.0,496.0 662.0,494.0 662.0,493.0 660.0,491.0 660.0,490.0 658.0,488.0 658.0,487.0 657.0,486.0 657.0,485.0 655.0,483.0 655.0,482.0 653.0,480.0 653.0,479.0 652.0,478.0 652.0,477.0 651.0,476.0 651.0,474.0 650.0,473.0 650.0,472.0 649.0,471.0 649.0,469.0 648.0,468.0 648.0,466.0 647.0,465.0 647.0,464.0 646.0,463.0 646.0,462.0 645.0,461.0 645.0,460.0 642.0,457.0 642.0,456.0 639.0,453.0 638.0,453.0 635.0,450.0 634.0,450.0 631.0,447.0 631.0,439.0 630.0,438.0 630.0,435.0 629.0,434.0 629.0,432.0 628.0,431.0 628.0,430.0 627.0,429.0 627.0,427.0 626.0,426.0 626.0,425.0 624.0,423.0 624.0,422.0 622.0,420.0 622.0,419.0 621.0,418.0 621.0,417.0 620.0,416.0 620.0,412.0 619.0,411.0 619.0,407.0 618.0,406.0 618.0,398.0 617.0,397.0 617.0,389.0 616.0,388.0 616.0,381.0 615.0,380.0 615.0,373.0 614.0,372.0 614.0,364.0 613.0,363.0 613.0,355.0 612.0,354.0 612.0,347.0 611.0,346.0 611.0,338.0 610.0,337.0 610.0,330.0 609.0,329.0 609.0,323.0 608.0,322.0 608.0,317.0 607.0,316.0 607.0,311.0 606.0,310.0 606.0,304.0 605.0,303.0 605.0,298.0 604.0,297.0 604.0,292.0 603.0,291.0 603.0,288.0 602.0,287.0 602.0,283.0 601.0,282.0 601.0,280.0 600.0,279.0 600.0,277.0 599.0,276.0 599.0,274.0 598.0,273.0 598.0,272.0 597.0,271.0 597.0,270.0 596.0,269.0 596.0,268.0 595.0,267.0 595.0,266.0 593.0,264.0 593.0,263.0 590.0,260.0 590.0,259.0 586.0,255.0 585.0,255.0 582.0,252.0 581.0,252.0 579.0,250.0 578.0,250.0 577.0,249.0 576.0,249.0 574.0,247.0 573.0,247.0 572.0,246.0 570.0,246.0 569.0,245.0 568.0,245.0 567.0,244.0 565.0,244.0 564.0,243.0 562.0,243.0 561.0,242.0 559.0,242.0 558.0,241.0 556.0,241.0 555.0,240.0 553.0,240.0 552.0,239.0 549.0,239.0 548.0,238.0 546.0,238.0 545.0,237.0 543.0,237.0 542.0,236.0 540.0,236.0 539.0,235.0 537.0,235.0 535.0,233.0 535.0,225.0 538.0,222.0 540.0,222.0 541.0,223.0 540.0,222.0 542.0,220.0 543.0,220.0 544.0,219.0 545.0,219.0 547.0,217.0 548.0,217.0 550.0,215.0 551.0,215.0 554.0,212.0 555.0,212.0 557.0,210.0 557.0,209.0 559.0,207.0 559.0,206.0 560.0,205.0 560.0,204.0 561.0,203.0 561.0,199.0 560.0,198.0 560.0,195.0 558.0,193.0 558.0,192.0 557.0,191.0 556.0,191.0 554.0,189.0 553.0,189.0 552.0,188.0 550.0,188.0 549.0,187.0 547.0,187.0 546.0,186.0 543.0,186.0 542.0,185.0 543.0,184.0 542.0,185.0 538.0,185.0 537.0,184.0 533.0,184.0 532.0,183.0 531.0,183.0 530.0,182.0 530.0,181.0 529.0,180.0 529.0,177.0 528.0,176.0 528.0,175.0 527.0,174.0 527.0,172.0 526.0,171.0 526.0,170.0 527.0,169.0 527.0,168.0 527.0,169.0 526.0,170.0 525.0,169.0 525.0,168.0 523.0,166.0 523.0,165.0 520.0,162.0 520.0,161.0 515.0,156.0 514.0,156.0 512.0,154.0 511.0,154.0 509.0,152.0 508.0,152.0 507.0,151.0 506.0,151.0 505.0,150.0 504.0,150.0 503.0,149.0 501.0,149.0 500.0,148.0 499.0,148.0 498.0,147.0 495.0,147.0 494.0,146.0 490.0,146.0 489.0,145.0 474.0,145.0 473.0,144.0 472.0,145.0 459.0,145.0 458.0,144.0 459.0,145.0 458.0,146.0 455.0,146.0 454.0,147.0 451.0,147.0 450.0,148.0 448.0,148.0 447.0,149.0 446.0,149.0 445.0,150.0 444.0,150.0 443.0,151.0 442.0,151.0 441.0,152.0 440.0,152.0 438.0,154.0 437.0,154.0 436.0,155.0 435.0,155.0 432.0,158.0 431.0,158.0 424.0,165.0 424.0,166.0 422.0,168.0 422.0,169.0 420.0,171.0 420.0,172.0 419.0,173.0 419.0,174.0 418.0,175.0 418.0,176.0 417.0,177.0 417.0,179.0 416.0,180.0 416.0,181.0 415.0,182.0 415.0,185.0 414.0,186.0 414.0,190.0 413.0,191.0 413.0,217.0 414.0,218.0 414.0,222.0 415.0,223.0 415.0,227.0 416.0,228.0 416.0,231.0 417.0,232.0 417.0,235.0 418.0,236.0 418.0,238.0 419.0,239.0 419.0,240.0 420.0,241.0 418.0,243.0 415.0,243.0 414.0,244.0 413.0,244.0 412.0,245.0 410.0,245.0 409.0,246.0 407.0,246.0 406.0,247.0 405.0,247.0 404.0,248.0 401.0,248.0 400.0,249.0 399.0,249.0 398.0,250.0 397.0,250.0 396.0,251.0 394.0,251.0 393.0,252.0 392.0,252.0 391.0,253.0 390.0,253.0 389.0,254.0 388.0,254.0 387.0,255.0 386.0,255.0 385.0,256.0 384.0,256.0 381.0,259.0 380.0,259.0 376.0,263.0 375.0,263.0 369.0,269.0 369.0,270.0 366.0,273.0 366.0,274.0 364.0,276.0 364.0,277.0 362.0,279.0 362.0,280.0 360.0,282.0 360.0,283.0 358.0,285.0 358.0,286.0 357.0,287.0 357.0,288.0 355.0,290.0 355.0,291.0 354.0,292.0 354.0,293.0 352.0,295.0 352.0,296.0 351.0,297.0 351.0,298.0 349.0,300.0 349.0,301.0 348.0,302.0 348.0,303.0 347.0,304.0 347.0,305.0 345.0,307.0 345.0,308.0 344.0,309.0 344.0,310.0 342.0,312.0 342.0,313.0 341.0,314.0 341.0,315.0 340.0,316.0 340.0,317.0 339.0,318.0 339.0,319.0 337.0,321.0 337.0,322.0 336.0,323.0 336.0,324.0 334.0,326.0 334.0,327.0 333.0,328.0 333.0,329.0 332.0,330.0 332.0,331.0 331.0,332.0 331.0,333.0 330.0,334.0 330.0,335.0 328.0,337.0 328.0,338.0 327.0,339.0 327.0,340.0 326.0,341.0 326.0,342.0 325.0,343.0 325.0,344.0 324.0,345.0 324.0,346.0 323.0,347.0 323.0,348.0 322.0,349.0 322.0,350.0 320.0,352.0 320.0,353.0 319.0,354.0 319.0,355.0 318.0,356.0 318.0,357.0 317.0,358.0 317.0,359.0 315.0,361.0 315.0,362.0 313.0,364.0 312.0,363.0 312.0,362.0 311.0,361.0 311.0,359.0 310.0,358.0 310.0,352.0 309.0,351.0 309.0,344.0 308.0,343.0 308.0,338.0 307.0,337.0 307.0,329.0 306.0,328.0 306.0,322.0 305.0,321.0 305.0,318.0 304.0,317.0 304.0,316.0 303.0,315.0 303.0,314.0 302.0,313.0 302.0,312.0 301.0,311.0 302.0,310.0 302.0,308.0 303.0,307.0 303.0,306.0 304.0,305.0 304.0,304.0 305.0,303.0 305.0,302.0 306.0,301.0 306.0,299.0 307.0,298.0 307.0,297.0 309.0,295.0 309.0,293.0 310.0,292.0 310.0,291.0 311.0,290.0 311.0,289.0 312.0,288.0 312.0,287.0 313.0,286.0 313.0,285.0 314.0,284.0 314.0,283.0 315.0,282.0 315.0,281.0 316.0,280.0 316.0,279.0 317.0,278.0 317.0,277.0 318.0,276.0 318.0,275.0 319.0,274.0 319.0,272.0 320.0,271.0 320.0,270.0 321.0,269.0 321.0,268.0 322.0,267.0 322.0,266.0 323.0,265.0 323.0,264.0 324.0,263.0 324.0,262.0 325.0,261.0 325.0,260.0 326.0,259.0 326.0,258.0 327.0,257.0 327.0,256.0 328.0,255.0 328.0,254.0 329.0,253.0 329.0,252.0 330.0,251.0 330.0,249.0 331.0,248.0 331.0,247.0 332.0,246.0 332.0,245.0 333.0,244.0 333.0,243.0 334.0,242.0 334.0,241.0 335.0,240.0 335.0,239.0 336.0,238.0 336.0,237.0 337.0,236.0 337.0,235.0 338.0,234.0 338.0,233.0 339.0,232.0 339.0,231.0 340.0,230.0 340.0,228.0 341.0,227.0 341.0,226.0 342.0,225.0 342.0,224.0 343.0,223.0 343.0,222.0 344.0,221.0 344.0,220.0 345.0,219.0 345.0,218.0 346.0,217.0 346.0,216.0 347.0,215.0 347.0,214.0 348.0,213.0 348.0,212.0 349.0,211.0 349.0,210.0 350.0,209.0 350.0,208.0 351.0,207.0 351.0,206.0 352.0,205.0 352.0,204.0 353.0,203.0 353.0,201.0 354.0,200.0 354.0,199.0 355.0,198.0 355.0,197.0 356.0,196.0 356.0,195.0 357.0,194.0 357.0,193.0 358.0,192.0 358.0,191.0 359.0,190.0 359.0,189.0 360.0,188.0 360.0,187.0 361.0,186.0 361.0,185.0 362.0,184.0 362.0,183.0 363.0,182.0 363.0,180.0 365.0,178.0 365.0,176.0 367.0,174.0 367.0,172.0 368.0,171.0 368.0,170.0 369.0,169.0 369.0,168.0 370.0,167.0 370.0,166.0 371.0,165.0 371.0,164.0 372.0,163.0 372.0,162.0 373.0,161.0 373.0,160.0 374.0,159.0 374.0,158.0 375.0,157.0 375.0,156.0 376.0,155.0 376.0,154.0 377.0,153.0 377.0,152.0 378.0,151.0 378.0,150.0 379.0,149.0 379.0,147.0 380.0,146.0 380.0,145.0 381.0,144.0 381.0,143.0 382.0,142.0 382.0,141.0 383.0,140.0 383.0,139.0 384.0,138.0 384.0,137.0 385.0,136.0 385.0,135.0 386.0,134.0 386.0,133.0 387.0,132.0 387.0,131.0 388.0,130.0 388.0,128.0 389.0,127.0 389.0,126.0 390.0,125.0 390.0,124.0 391.0,123.0 391.0,122.0 392.0,121.0 392.0,120.0 393.0,119.0 393.0,118.0 394.0,117.0 394.0,116.0 395.0,115.0 395.0,114.0 396.0,113.0 396.0,111.0 397.0,110.0 397.0,109.0 398.0,108.0 398.0,107.0 399.0,106.0 399.0,105.0 400.0,104.0 400.0,103.0 401.0,102.0 401.0,101.0 402.0,100.0 402.0,99.0 403.0,98.0 403.0,97.0 404.0,96.0 404.0,95.0 405.0,94.0 405.0,92.0 406.0,91.0 406.0,90.0 407.0,89.0 407.0,88.0 408.0,87.0 408.0,86.0 409.0,85.0 409.0,84.0 410.0,83.0 410.0,81.0 411.0,80.0 411.0,79.0 412.0,78.0 412.0,77.0 413.0,76.0 413.0,74.0 414.0,73.0 414.0,72.0 415.0,71.0 415.0,69.0 416.0,68.0 416.0,66.0 417.0,65.0 417.0,61.0 418.0,60.0 418.0,56.0 417.0,55.0 417.0,52.0 416.0,51.0 416.0,49.0 415.0,48.0 415.0,47.0 413.0,45.0 413.0,44.0 409.0,40.0 408.0,40.0 406.0,38.0 405.0,38.0 404.0,37.0 405.0,36.0 404.0,37.0 402.0,37.0 401.0,36.0 386.0,36.0 385.0,37.0 383.0,37.0 382.0,36.0" /></svg>